# xmcd
#
# Track frame offsets:
#	150
#	14903
#	36084
#	57108
#	75479
#	98072
#	111059
#	134640
#	148610
#	161896
#	176662
#
# Disc length: 2622 seconds
#
# Revision: 0
# Processed by: cddbd v1.5.1PL0 Copyright (c) Steve Scherf et al.
# Submitted via: dBpowerAMP V4.0
#
DISCID=960a3c0b
DTITLE=Billy Flynn - Leavin' in the Morning
DYEAR=1991
DGENRE=Blues
TTITLE0=Billy's Boogie
TTITLE1=Mean Mistreater
TTITLE2=Movin' To Chicago
TTITLE3=What's Wrong
TTITLE4=No One to Love Me
TTITLE5=Walkin' the Ceiling
TTITLE6=Luv Somebody
TTITLE7=Two Headed Woman
TTITLE8=Zeb's Blues
TTITLE9=Tore Down
TTITLE10=If You Let Me Love You
EXTD=
EXTT0=
EXTT1=
EXTT2=
EXTT3=
EXTT4=
EXTT5=
EXTT6=
EXTT7=
EXTT8=
EXTT9=
EXTT10=
PLAYORDER=
